<svg width="88" height="8" viewBox="0 0 88 8" fill="none" xmlns="http://www.w3.org/2000/svg">
<path d="M33.938 0.460268C38.4137 0.504002 42.8956 0.555615 47.3625 0.555516C48.9947 0.549323 50.6116 0.3774 52.2876 0.362341L60.9251 0.454005C63.8012 0.529296 66.6834 0.612468 69.5584 0.637769C72.1134 0.659383 74.6441 0.471432 77.1944 0.357114C78.8246 0.25094 80.4415 0.0790176 82.0683 0.000916857C83.7058 0.00454753 85.341 0.122015 86.9622 0.352465C87.9755 0.512512 87.9071 1.30201 87.1164 2.2878C86.026 3.60615 84.5624 4.56386 82.9178 5.03514C76.2817 5.83796 69.5937 6.12906 62.913 5.90586C58.9237 5.67249 54.7252 6.09739 50.6322 6.18613C46.1207 6.25912 41.6022 6.27424 37.0959 6.30512L28.7613 6.35751C24.5604 6.45439 20.3238 6.2619 16.1283 6.43068C12.8868 6.48862 9.70319 6.9455 6.44422 7.0298C5.73648 7.04976 5.02528 7.09779 4.30867 7.07392C1.72075 6.79891 0.772398 6.28351 0.336993 5.30391C0.2087 5.0981 0.101837 4.87968 0.0180752 4.65207C-0.159738 3.95345 0.935357 3.38974 2.78671 2.93313C8.42229 1.53771 14.4258 1.14923 20.4598 0.686134C24.939 0.295717 29.4534 0.372697 33.9666 0.285668L33.938 0.460268Z" fill="#003061"/>
</svg>
